<?xml version="1.0" standalone="no"?>
<!DOCTYPE svg PUBLIC "-//W3C//DTD SVG 20010904//EN"
 "http://www.w3.org/TR/2001/REC-SVG-20010904/DTD/svg10.dtd">
<svg version="1.0" xmlns="http://www.w3.org/2000/svg"
 width="512.000000pt" height="512.000000pt" viewBox="0 0 512.000000 512.000000"
 preserveAspectRatio="xMidYMid meet">
<metadata>
Created by potrace 1.14, written by Peter Selinger 2001-2017
</metadata>
<g transform="translate(0.000000,512.000000) scale(0.100000,-0.100000)"
fill="#000000" stroke="none">
<path d="M699 5116 c-2 -2 -24 -7 -49 -11 -245 -36 -486 -231 -587 -476 -67
-159 -63 -47 -60 -2098 1 -1021 6 -1869 10 -1886 4 -16 13 -48 18 -70 17 -65
76 -185 121 -244 108 -147 272 -260 438 -303 19 -5 44 -12 55 -15 11 -4 529
-9 1150 -10 1064 -3 1132 -2 1165 14 19 10 45 34 58 53 20 30 23 43 19 89 -6
54 -27 89 -72 114 -15 9 -319 13 -1145 17 l-1125 5 -57 22 c-174 66 -288 193
-333 368 -13 52 -15 284 -15 1875 0 1598 2 1823 15 1875 49 190 185 328 368
376 58 16 108 19 276 19 182 0 210 2 241 19 91 48 100 184 16 244 -30 21 -41
22 -267 24 -130 2 -238 1 -240 -1z"/>
<path d="M2083 5106 c-42 -19 -83 -81 -83 -126 0 -48 28 -100 69 -127 l34 -23
1137 0 c1074 0 1140 -1 1207 -19 183 -48 321 -188 368 -377 14 -54 15 -277 12
-1900 -2 -1707 -4 -1842 -19 -1887 -59 -165 -177 -280 -343 -333 -64 -20 -91
-23 -309 -24 -264 -1 -287 -5 -328 -63 -30 -42 -30 -123 0 -165 42 -59 66 -63
336 -61 135 1 266 6 293 11 26 5 57 11 68 13 44 9 153 57 218 96 64 38 227
188 227 209 0 5 6 15 13 22 19 20 63 106 86 168 52 141 50 55 51 2030 0 1215
-4 1856 -10 1899 -53 325 -300 583 -630 657 -19 4 -559 9 -1200 11 -976 2
-1170 0 -1197 -11z"/>
<path d="M1610 4166 c0 -5 22 -84 50 -175 27 -91 60 -204 74 -251 14 -47 41
-139 60 -204 l36 -119 0 -226 0 -226 150 0 c83 -1 150 2 151 5 1 3 2 109 4
235 3 253 -4 211 90 510 26 83 51 164 56 180 4 17 23 80 42 140 19 61 37 116
39 124 2 12 -18 15 -115 16 -65 0 -122 -2 -127 -5 -5 -3 -25 -73 -45 -155 -44
-187 -73 -285 -84 -285 -10 0 -50 135 -92 310 l-32 135 -128 0 c-71 0 -129 -4
-129 -9z"/>
<path d="M2598 3935 c-2 -2 -21 -6 -43 -9 -91 -14 -177 -99 -191 -186 -4 -25
-7 -169 -7 -321 1 -253 2 -279 20 -321 41 -92 133 -148 245 -149 127 -2 210
42 261 136 21 39 22 51 22 355 0 287 -2 318 -19 352 -41 84 -122 133 -233 141
-29 3 -54 3 -55 2z m66 -257 c12 -19 15 -65 14 -238 0 -118 -4 -223 -9 -232
-6 -10 -20 -18 -33 -18 -47 0 -49 15 -48 258 2 201 4 228 19 240 25 18 41 15
57 -10z"/>
<path d="M3006 3930 c-2 -3 -2 -201 -2 -440 2 -391 3 -438 19 -467 41 -77 160
-98 237 -43 l28 20 20 -27 c19 -26 23 -27 113 -27 l94 0 0 492 c0 321 -3 493
-10 495 -5 2 -53 3 -105 3 l-95 -1 -2 -330 c-2 -181 -5 -335 -7 -342 -3 -6
-14 -17 -25 -23 -17 -8 -24 -7 -41 10 -19 19 -20 32 -20 353 l0 332 -101 0
c-55 1 -102 -2 -103 -5z"/>
<path d="M1285 2753 c-231 -51 -400 -213 -451 -429 -24 -103 -24 -998 0 -1093
50 -195 209 -359 401 -412 42 -12 264 -14 1315 -14 696 0 1284 3 1307 7 52 9
160 57 210 94 119 88 193 208 230 369 2 11 4 238 5 505 1 535 -3 569 -63 672
-16 27 -29 52 -29 57 0 4 -31 40 -70 79 -50 50 -91 81 -142 106 -140 68 -54
65 -1438 64 -690 0 -1264 -2 -1275 -5z"/>
</g>
</svg>
